<mxfile host="app.diagrams.net" modified="2020-09-25T12:14:49.965Z" agent="5.0 (Macintosh; Intel Mac OS X 10_15_6) AppleWebKit/605.1.15 (KHTML, like Gecko) Version/13.1.2 Safari/605.1.15" etag="8u5JfmfuHGF9TBHB4DVx" version="13.7.4" type="github" pages="13">
  <diagram id="OdZgyVn5XhlClu9Kdnrf" name="Page-1">
    <mxGraphModel dx="2237" dy="1324" grid="1" gridSize="10" guides="1" tooltips="1" connect="1" arrows="1" fold="1" page="1" pageScale="1" pageWidth="827" pageHeight="1169" math="0" shadow="0">
      <root>
        <mxCell id="0" />
        <mxCell id="1" parent="0" />
        <mxCell id="YqLWJfkvE_EcR97pTUsP-1" value="" style="rounded=1;whiteSpace=wrap;html=1;fillColor=#fff2cc;strokeColor=#d6b656;" parent="1" vertex="1">
          <mxGeometry x="-230" y="720" width="180" height="60" as="geometry" />
        </mxCell>
        <mxCell id="YqLWJfkvE_EcR97pTUsP-2" value="" style="whiteSpace=wrap;html=1;aspect=fixed;" parent="1" vertex="1">
          <mxGeometry x="-560" y="20" width="1200" height="1200" as="geometry" />
        </mxCell>
        <mxCell id="YqLWJfkvE_EcR97pTUsP-11" value="" style="verticalLabelPosition=bottom;verticalAlign=top;html=1;shape=trapezoid;perimeter=trapezoidPerimeter;whiteSpace=wrap;size=0.23;arcSize=10;flipV=1;strokeColor=#B09500;fontColor=#ffffff;fillColor=#FFE100;" parent="1" vertex="1">
          <mxGeometry x="-430" y="320" width="880" height="790" as="geometry" />
        </mxCell>
        <mxCell id="YqLWJfkvE_EcR97pTUsP-13" value="" style="shape=document;whiteSpace=wrap;html=1;boundedLbl=1;rotation=-180;" parent="1" vertex="1">
          <mxGeometry x="-397.5" y="210" width="847.5" height="250" as="geometry" />
        </mxCell>
        <mxCell id="YqLWJfkvE_EcR97pTUsP-15" value="&lt;font style=&quot;font-size: 45px&quot; face=&quot;Times New Roman&quot;&gt;Inició de sesión&amp;nbsp;&lt;/font&gt;" style="rounded=0;whiteSpace=wrap;html=1;fillColor=#FFE100;gradientColor=none;" parent="1" vertex="1">
          <mxGeometry x="-222.5" y="910" width="450" height="80" as="geometry" />
        </mxCell>
        <mxCell id="YqLWJfkvE_EcR97pTUsP-16" value="&lt;font style=&quot;font-size: 45px&quot; face=&quot;Times New Roman&quot;&gt;Contraseña&lt;/font&gt;" style="rounded=0;whiteSpace=wrap;html=1;fillColor=#FFE100;gradientColor=none;" parent="1" vertex="1">
          <mxGeometry x="-222.5" y="770" width="460" height="100" as="geometry" />
        </mxCell>
        <mxCell id="YqLWJfkvE_EcR97pTUsP-17" value="&lt;font face=&quot;Times New Roman&quot;&gt;&lt;font style=&quot;font-size: 45px&quot;&gt;Usuario&lt;/font&gt;&lt;font style=&quot;font-size: 30px&quot;&gt;&amp;nbsp;&lt;/font&gt;&lt;/font&gt;" style="rounded=0;whiteSpace=wrap;html=1;fillColor=#FFE100;gradientColor=none;fontSize=15;" parent="1" vertex="1">
          <mxGeometry x="-232.5" y="585" width="460" height="100" as="geometry" />
        </mxCell>
        <mxCell id="YqLWJfkvE_EcR97pTUsP-22" value="&lt;font style=&quot;font-size: 32px&quot;&gt;Logo&lt;/font&gt;" style="ellipse;whiteSpace=wrap;html=1;fillColor=#FFE100;gradientColor=none;fontSize=15;" parent="1" vertex="1">
          <mxGeometry x="-163.75" y="290" width="380" height="140" as="geometry" />
        </mxCell>
      </root>
    </mxGraphModel>
  </diagram>
  <diagram id="yd0WFXFeAAes2lbcneku" name="Page-2">
    <mxGraphModel dx="2719" dy="1374" grid="1" gridSize="10" guides="1" tooltips="1" connect="1" arrows="1" fold="1" page="1" pageScale="1" pageWidth="827" pageHeight="1169" math="0" shadow="0">
      <root>
        <mxCell id="ZfC_YYsEvBGr8fBAGhfZ-0" />
        <mxCell id="ZfC_YYsEvBGr8fBAGhfZ-1" parent="ZfC_YYsEvBGr8fBAGhfZ-0" />
        <mxCell id="fcDqq3O9mFKBWV3WrLpg-0" value="" style="whiteSpace=wrap;html=1;aspect=fixed;" vertex="1" parent="ZfC_YYsEvBGr8fBAGhfZ-1">
          <mxGeometry x="-600" y="320" width="1200" height="1200" as="geometry" />
        </mxCell>
        <mxCell id="O66CszkEDsw6-eAV38oF-7" value="" style="shape=offPageConnector;whiteSpace=wrap;html=1;fillColor=#FFE100;gradientColor=none;fontSize=31;" vertex="1" parent="ZfC_YYsEvBGr8fBAGhfZ-1">
          <mxGeometry x="-330" y="690" width="660" height="510" as="geometry" />
        </mxCell>
        <mxCell id="O66CszkEDsw6-eAV38oF-9" value="" style="shape=loopLimit;whiteSpace=wrap;html=1;fillColor=#FFE100;gradientColor=none;fontSize=31;rotation=-180;" vertex="1" parent="ZfC_YYsEvBGr8fBAGhfZ-1">
          <mxGeometry x="-330" y="940" width="660" height="390" as="geometry" />
        </mxCell>
        <mxCell id="O66CszkEDsw6-eAV38oF-10" value="" style="shape=document;whiteSpace=wrap;html=1;boundedLbl=1;rotation=-180;verticalAlign=middle;" vertex="1" parent="ZfC_YYsEvBGr8fBAGhfZ-1">
          <mxGeometry x="-335" y="630" width="665" height="160" as="geometry" />
        </mxCell>
        <mxCell id="O66CszkEDsw6-eAV38oF-11" value="&lt;font style=&quot;font-size: 32px&quot;&gt;Logo&lt;/font&gt;" style="ellipse;whiteSpace=wrap;html=1;fillColor=#FFE100;gradientColor=none;fontSize=15;" vertex="1" parent="ZfC_YYsEvBGr8fBAGhfZ-1">
          <mxGeometry x="-205" y="680" width="350" height="110" as="geometry" />
        </mxCell>
        <mxCell id="O66CszkEDsw6-eAV38oF-12" value="Usuario *" style="text;html=1;strokeColor=none;fillColor=none;align=center;verticalAlign=middle;whiteSpace=wrap;rounded=0;fontSize=31;" vertex="1" parent="ZfC_YYsEvBGr8fBAGhfZ-1">
          <mxGeometry x="-240" y="820" width="140" height="20" as="geometry" />
        </mxCell>
        <mxCell id="O66CszkEDsw6-eAV38oF-14" value="" style="rounded=1;whiteSpace=wrap;html=1;fillColor=#FFE100;gradientColor=none;fontSize=31;" vertex="1" parent="ZfC_YYsEvBGr8fBAGhfZ-1">
          <mxGeometry x="-240" y="1030" width="440" height="80" as="geometry" />
        </mxCell>
        <mxCell id="O66CszkEDsw6-eAV38oF-15" value="" style="rounded=1;whiteSpace=wrap;html=1;fillColor=#FFE100;gradientColor=none;fontSize=31;" vertex="1" parent="ZfC_YYsEvBGr8fBAGhfZ-1">
          <mxGeometry x="-240" y="850" width="440" height="80" as="geometry" />
        </mxCell>
        <mxCell id="O66CszkEDsw6-eAV38oF-16" value="Contraseña *" style="text;html=1;strokeColor=none;fillColor=none;align=center;verticalAlign=middle;whiteSpace=wrap;rounded=0;fontSize=31;" vertex="1" parent="ZfC_YYsEvBGr8fBAGhfZ-1">
          <mxGeometry x="-240" y="990" width="190" height="20" as="geometry" />
        </mxCell>
        <mxCell id="O66CszkEDsw6-eAV38oF-17" value="&lt;span style=&quot;font-family: &amp;#34;times new roman&amp;#34; ; font-size: 45px&quot;&gt;Inició de sesión&amp;nbsp;&lt;/span&gt;" style="rounded=1;whiteSpace=wrap;html=1;fillColor=#FFE100;gradientColor=none;fontSize=31;" vertex="1" parent="ZfC_YYsEvBGr8fBAGhfZ-1">
          <mxGeometry x="-240" y="1169" width="440" height="80" as="geometry" />
        </mxCell>
      </root>
    </mxGraphModel>
  </diagram>
  <diagram id="i0UD1wv1G6dL-xX6w_1Y" name="Page-3">
    <mxGraphModel dx="1532" dy="662" grid="1" gridSize="10" guides="1" tooltips="1" connect="1" arrows="1" fold="1" page="1" pageScale="1" pageWidth="827" pageHeight="1169" math="0" shadow="0">
      <root>
        <mxCell id="pzARyAESD8xFioTq4Ngf-0" />
        <mxCell id="pzARyAESD8xFioTq4Ngf-1" parent="pzARyAESD8xFioTq4Ngf-0" />
        <mxCell id="pzARyAESD8xFioTq4Ngf-2" value="" style="whiteSpace=wrap;html=1;aspect=fixed;" parent="pzARyAESD8xFioTq4Ngf-1" vertex="1">
          <mxGeometry x="-580" y="320" width="1200" height="1200" as="geometry" />
        </mxCell>
        <mxCell id="pzARyAESD8xFioTq4Ngf-8" value="&lt;font style=&quot;font-size: 32px&quot;&gt;Logo&lt;/font&gt;" style="ellipse;whiteSpace=wrap;html=1;fontSize=15;" parent="pzARyAESD8xFioTq4Ngf-1" vertex="1">
          <mxGeometry x="-350" y="480" width="690" height="190" as="geometry" />
        </mxCell>
        <mxCell id="Yz2zz9wqmrm4sGv6tlVy-0" value="&lt;span style=&quot;color: rgba(0 , 0 , 0 , 0) ; font-family: monospace ; font-size: 0px&quot;&gt;%3CmxGraphModel%3E%3Croot%3E%3CmxCell%20id%3D%220%22%2F%3E%3CmxCell%20id%3D%221%22%20parent%3D%220%22%2F%3E%3CmxCell%20id%3D%222%22%20value%3D%22%26lt%3Bfont%20style%3D%26quot%3Bfont-size%3A%2045px%26quot%3B%20face%3D%26quot%3BTimes%20New%20Roman%26quot%3B%26gt%3BContrase%C3%B1a%26lt%3B%2Ffont%26gt%3B%22%20style%3D%22rounded%3D0%3BwhiteSpace%3Dwrap%3Bhtml%3D1%3BfillColor%3D%23FFE100%3BgradientColor%3Dnone%3B%22%20vertex%3D%221%22%20parent%3D%221%22%3E%3CmxGeometry%20x%3D%22-420%22%20y%3D%22680%22%20width%3D%22460%22%20height%3D%22100%22%20as%3D%22geometry%22%2F%3E%3C%2FmxCell%3E%3CmxCell%20id%3D%223%22%20value%3D%22%26lt%3Bfont%20face%3D%26quot%3BTimes%20New%20Roman%26quot%3B%26gt%3B%26lt%3Bfont%20style%3D%26quot%3Bfont-size%3A%2045px%26quot%3B%26gt%3BUsuario%26lt%3B%2Ffont%26gt%3B%26lt%3Bfont%20style%3D%26quot%3Bfont-size%3A%2030px%26quot%3B%26gt%3B%26amp%3Bnbsp%3B%26lt%3B%2Ffont%26gt%3B%26lt%3B%2Ffont%26gt%3B%22%20style%3D%22rounded%3D0%3BwhiteSpace%3Dwrap%3Bhtml%3D1%3BfillColor%3D%23FFE100%3BgradientColor%3Dnone%3BfontSize%3D15%3B%22%20vertex%3D%221%22%20parent%3D%221%22%3E%3CmxGeometry%20x%3D%22-410%22%20y%3D%22500%22%20width%3D%22460%22%20height%3D%22100%22%20as%3D%22geometry%22%2F%3E%3C%2FmxCell%3E%3C%2Froot%3E%3C%2FmxGraphModel%3E&lt;/span&gt;&lt;span style=&quot;color: rgba(0 , 0 , 0 , 0) ; font-family: monospace ; font-size: 0px&quot;&gt;%3CmxGraphModel%3E%3Croot%3E%3CmxCell%20id%3D%220%22%2F%3E%3CmxCell%20id%3D%221%22%20parent%3D%220%22%2F%3E%3CmxCell%20id%3D%222%22%20value%3D%22%26lt%3Bfont%20style%3D%26quot%3Bfont-size%3A%2045px%26quot%3B%20face%3D%26quot%3BTimes%20New%20Roman%26quot%3B%26gt%3BContrase%C3%B1a%26lt%3B%2Ffont%26gt%3B%22%20style%3D%22rounded%3D0%3BwhiteSpace%3Dwrap%3Bhtml%3D1%3BfillColor%3D%23FFE100%3BgradientColor%3Dnone%3B%22%20vertex%3D%221%22%20parent%3D%221%22%3E%3CmxGeometry%20x%3D%22-420%22%20y%3D%22680%22%20width%3D%22460%22%20height%3D%22100%22%20as%3D%22geometry%22%2F%3E%3C%2FmxCell%3E%3CmxCell%20id%3D%223%22%20value%3D%22%26lt%3Bfont%20face%3D%26quot%3BTimes%20New%20Roman%26quot%3B%26gt%3B%26lt%3Bfont%20style%3D%26quot%3Bfont-size%3A%2045px%26quot%3B%26gt%3BUsuario%26lt%3B%2Ffont%26gt%3B%26lt%3Bfont%20style%3D%26quot%3Bfont-size%3A%2030px%26quot%3B%26gt%3B%26amp%3Bnbsp%3B%26lt%3B%2Ffont%26gt%3B%26lt%3B%2Ffont%26gt%3B%22%20style%3D%22rounded%3D0%3BwhiteSpace%3Dwrap%3Bhtml%3D1%3BfillColor%3D%23FFE100%3BgradientColor%3Dnone%3BfontSize%3D15%3B%22%20vertex%3D%221%22%20parent%3D%221%22%3E%3CmxGeometry%20x%3D%22-410%22%20y%3D%22500%22%20width%3D%22460%22%20height%3D%22100%22%20as%3D%22geometry%22%2F%3E%3C%2FmxCell%3E%3C%2Froot%3E%3C%2FmxGraphModel%3E&lt;/span&gt;&lt;span style=&quot;color: rgba(0 , 0 , 0 , 0) ; font-family: monospace ; font-size: 0px&quot;&gt;%3CmxGraphModel%3E%3Croot%3E%3CmxCell%20id%3D%220%22%2F%3E%3CmxCell%20id%3D%221%22%20parent%3D%220%22%2F%3E%3CmxCell%20id%3D%222%22%20value%3D%22%26lt%3Bfont%20style%3D%26quot%3Bfont-size%3A%2045px%26quot%3B%20face%3D%26quot%3BTimes%20New%20Roman%26quot%3B%26gt%3BContrase%C3%B1a%26lt%3B%2Ffont%26gt%3B%22%20style%3D%22rounded%3D0%3BwhiteSpace%3Dwrap%3Bhtml%3D1%3BfillColor%3D%23FFE100%3BgradientColor%3Dnone%3B%22%20vertex%3D%221%22%20parent%3D%221%22%3E%3CmxGeometry%20x%3D%22-420%22%20y%3D%22680%22%20width%3D%22460%22%20height%3D%22100%22%20as%3D%22geometry%22%2F%3E%3C%2FmxCell%3E%3CmxCell%20id%3D%223%22%20value%3D%22%26lt%3Bfont%20face%3D%26quot%3BTimes%20New%20Roman%26quot%3B%26gt%3B%26lt%3Bfont%20style%3D%26quot%3Bfont-size%3A%2045px%26quot%3B%26gt%3BUsuario%26lt%3B%2Ffont%26gt%3B%26lt%3Bfont%20style%3D%26quot%3Bfont-size%3A%2030px%26quot%3B%26gt%3B%26amp%3Bnbsp%3B%26lt%3B%2Ffont%26gt%3B%26lt%3B%2Ffont%26gt%3B%22%20style%3D%22rounded%3D0%3BwhiteSpace%3Dwrap%3Bhtml%3D1%3BfillColor%3D%23FFE100%3BgradientColor%3Dnone%3BfontSize%3D15%3B%22%20vertex%3D%221%22%20parent%3D%221%22%3E%3CmxGeometry%20x%3D%22-410%22%20y%3D%22500%22%20width%3D%22460%22%20height%3D%22100%22%20as%3D%22geometry%22%2F%3E%3C%2FmxCell%3E%3C%2Froot%3E%3C%2FmxGraphModel%3E&lt;/span&gt;&lt;span style=&quot;color: rgba(0 , 0 , 0 , 0) ; font-family: monospace ; font-size: 0px&quot;&gt;%3CmxGraphModel%3E%3Croot%3E%3CmxCell%20id%3D%220%22%2F%3E%3CmxCell%20id%3D%221%22%20parent%3D%220%22%2F%3E%3CmxCell%20id%3D%222%22%20value%3D%22%26lt%3Bfont%20style%3D%26quot%3Bfont-size%3A%2045px%26quot%3B%20face%3D%26quot%3BTimes%20New%20Roman%26quot%3B%26gt%3BContrase%C3%B1a%26lt%3B%2Ffont%26gt%3B%22%20style%3D%22rounded%3D0%3BwhiteSpace%3Dwrap%3Bhtml%3D1%3BfillColor%3D%23FFE100%3BgradientColor%3Dnone%3B%22%20vertex%3D%221%22%20parent%3D%221%22%3E%3CmxGeometry%20x%3D%22-420%22%20y%3D%22680%22%20width%3D%22460%22%20height%3D%22100%22%20as%3D%22geometry%22%2F%3E%3C%2FmxCell%3E%3CmxCell%20id%3D%223%22%20value%3D%22%26lt%3Bfont%20face%3D%26quot%3BTimes%20New%20Roman%26quot%3B%26gt%3B%26lt%3Bfont%20style%3D%26quot%3Bfont-size%3A%2045px%26quot%3B%26gt%3BUsuario%26lt%3B%2Ffont%26gt%3B%26lt%3Bfont%20style%3D%26quot%3Bfont-size%3A%2030px%26quot%3B%26gt%3B%26amp%3Bnbsp%3B%26lt%3B%2Ffont%26gt%3B%26lt%3B%2Ffont%26gt%3B%22%20style%3D%22rounded%3D0%3BwhiteSpace%3Dwrap%3Bhtml%3D1%3BfillColor%3D%23FFE100%3BgradientColor%3Dnone%3BfontSize%3D15%3B%22%20vertex%3D%221%22%20parent%3D%221%22%3E%3CmxGeometry%20x%3D%22-410%22%20y%3D%22500%22%20width%3D%22460%22%20height%3D%22100%22%20as%3D%22geometry%22%2F%3E%3C%2FmxCell%3E%3C%2Froot%3E%3C%2FmxGraphModel%3E&lt;/span&gt;&lt;span style=&quot;color: rgba(0 , 0 , 0 , 0) ; font-family: monospace ; font-size: 0px&quot;&gt;%3CmxGraphModel%3E%3Croot%3E%3CmxCell%20id%3D%220%22%2F%3E%3CmxCell%20id%3D%221%22%20parent%3D%220%22%2F%3E%3CmxCell%20id%3D%222%22%20value%3D%22%26lt%3Bfont%20style%3D%26quot%3Bfont-size%3A%2045px%26quot%3B%20face%3D%26quot%3BTimes%20New%20Roman%26quot%3B%26gt%3BContrase%C3%B1a%26lt%3B%2Ffont%26gt%3B%22%20style%3D%22rounded%3D0%3BwhiteSpace%3Dwrap%3Bhtml%3D1%3BfillColor%3D%23FFE100%3BgradientColor%3Dnone%3B%22%20vertex%3D%221%22%20parent%3D%221%22%3E%3CmxGeometry%20x%3D%22-420%22%20y%3D%22680%22%20width%3D%22460%22%20height%3D%22100%22%20as%3D%22geometry%22%2F%3E%3C%2FmxCell%3E%3CmxCell%20id%3D%223%22%20value%3D%22%26lt%3Bfont%20face%3D%26quot%3BTimes%20New%20Roman%26quot%3B%26gt%3B%26lt%3Bfont%20style%3D%26quot%3Bfont-size%3A%2045px%26quot%3B%26gt%3BUsuario%26lt%3B%2Ffont%26gt%3B%26lt%3Bfont%20style%3D%26quot%3Bfont-size%3A%2030px%26quot%3B%26gt%3B%26amp%3Bnbsp%3B%26lt%3B%2Ffont%26gt%3B%26lt%3B%2Ffont%26gt%3B%22%20style%3D%22rounded%3D0%3BwhiteSpace%3Dwrap%3Bhtml%3D1%3BfillColor%3D%23FFE100%3BgradientColor%3Dnone%3BfontSize%3D15%3B%22%20vertex%3D%221%22%20parent%3D%221%22%3E%3CmxGeometry%20x%3D%22-410%22%20y%3D%22500%22%20width%3D%22460%22%20height%3D%22100%22%20as%3D%22geometry%22%2F%3E%3C%2FmxCell%3E%3C%2Froot%3E%3C%2FmxGraphModel%3E&lt;/span&gt;" style="whiteSpace=wrap;html=1;aspect=fixed;fontSize=31;" parent="pzARyAESD8xFioTq4Ngf-1" vertex="1">
          <mxGeometry x="-330" y="680" width="677.5" height="677.5" as="geometry" />
        </mxCell>
        <mxCell id="4zDi6PHGMhX0G5w94Z2A-0" value="&lt;font style=&quot;font-size: 45px&quot; face=&quot;Times New Roman&quot;&gt;Contraseña&lt;/font&gt;" style="rounded=0;whiteSpace=wrap;html=1;" parent="pzARyAESD8xFioTq4Ngf-1" vertex="1">
          <mxGeometry x="-235" y="960" width="460" height="100" as="geometry" />
        </mxCell>
        <mxCell id="4zDi6PHGMhX0G5w94Z2A-1" value="&lt;font face=&quot;Times New Roman&quot;&gt;&lt;font style=&quot;font-size: 45px&quot;&gt;Usuario&lt;/font&gt;&lt;font style=&quot;font-size: 30px&quot;&gt;&amp;nbsp;&lt;/font&gt;&lt;/font&gt;" style="rounded=0;whiteSpace=wrap;html=1;fontSize=15;" parent="pzARyAESD8xFioTq4Ngf-1" vertex="1">
          <mxGeometry x="-230" y="760" width="460" height="100" as="geometry" />
        </mxCell>
        <mxCell id="4zDi6PHGMhX0G5w94Z2A-2" value="&lt;font style=&quot;font-size: 45px&quot; face=&quot;Times New Roman&quot;&gt;Inició de sesión&amp;nbsp;&lt;/font&gt;" style="rounded=0;whiteSpace=wrap;html=1;fillColor=#007FFF;" parent="pzARyAESD8xFioTq4Ngf-1" vertex="1">
          <mxGeometry x="-235" y="1160" width="470" height="90" as="geometry" />
        </mxCell>
        <mxCell id="4zDi6PHGMhX0G5w94Z2A-6" value="Inició de sesión" style="labelPosition=center;verticalLabelPosition=middle;align=center;html=1;shape=mxgraph.basic.button;dx=10;fillColor=#FFE100;gradientColor=none;fontSize=31;" parent="pzARyAESD8xFioTq4Ngf-1" vertex="1">
          <mxGeometry x="-260" y="1140" width="500" height="150" as="geometry" />
        </mxCell>
        <mxCell id="MCH0ItZS_WdYDcJ3UNNz-0" value="" style="verticalLabelPosition=bottom;verticalAlign=top;html=1;shape=mxgraph.basic.half_circle;fontSize=31;rotation=-165;" parent="pzARyAESD8xFioTq4Ngf-1" vertex="1">
          <mxGeometry x="-390" y="400" width="170" height="90" as="geometry" />
        </mxCell>
        <mxCell id="MCH0ItZS_WdYDcJ3UNNz-1" value="" style="shape=loopLimit;whiteSpace=wrap;html=1;fontSize=31;rotation=-120;strokeColor=#d6b656;fillColor=#FFE100;" parent="pzARyAESD8xFioTq4Ngf-1" vertex="1">
          <mxGeometry x="-491.16" y="356.65" width="210" height="230" as="geometry" />
        </mxCell>
      </root>
    </mxGraphModel>
  </diagram>
  <diagram id="UZVhpP4fCdfZgNUbPKG7" name="Page-4">
    <mxGraphModel dx="2719" dy="1374" grid="1" gridSize="10" guides="1" tooltips="1" connect="1" arrows="1" fold="1" page="1" pageScale="1" pageWidth="827" pageHeight="1169" math="0" shadow="0">
      <root>
        <mxCell id="l1Qrcl0CT77MVCxRaoeZ-0" />
        <mxCell id="l1Qrcl0CT77MVCxRaoeZ-1" parent="l1Qrcl0CT77MVCxRaoeZ-0" />
        <mxCell id="GrH6y4oyKHQj6D7hcb3w-0" value="" style="whiteSpace=wrap;html=1;aspect=fixed;" vertex="1" parent="l1Qrcl0CT77MVCxRaoeZ-1">
          <mxGeometry x="-720" width="1030" height="1030" as="geometry" />
        </mxCell>
        <mxCell id="GrH6y4oyKHQj6D7hcb3w-1" value="" style="verticalLabelPosition=bottom;verticalAlign=top;html=1;shape=trapezoid;perimeter=trapezoidPerimeter;whiteSpace=wrap;size=0.23;arcSize=10;flipV=1;strokeColor=#B09500;fontColor=#ffffff;fillColor=#FFE100;" vertex="1" parent="l1Qrcl0CT77MVCxRaoeZ-1">
          <mxGeometry x="-640" y="200" width="880" height="790" as="geometry" />
        </mxCell>
        <mxCell id="GrH6y4oyKHQj6D7hcb3w-2" value="" style="shape=document;whiteSpace=wrap;html=1;boundedLbl=1;rotation=-180;" vertex="1" parent="l1Qrcl0CT77MVCxRaoeZ-1">
          <mxGeometry x="-623.75" y="40" width="847.5" height="250" as="geometry" />
        </mxCell>
        <mxCell id="GrH6y4oyKHQj6D7hcb3w-3" value="&lt;font style=&quot;font-size: 45px&quot; face=&quot;Times New Roman&quot;&gt;Inició de sesión&amp;nbsp;&lt;/font&gt;" style="rounded=0;whiteSpace=wrap;html=1;fillColor=#FFE100;gradientColor=none;" vertex="1" parent="l1Qrcl0CT77MVCxRaoeZ-1">
          <mxGeometry x="-415" y="690" width="450" height="80" as="geometry" />
        </mxCell>
        <mxCell id="GrH6y4oyKHQj6D7hcb3w-4" value="&lt;font style=&quot;font-size: 45px&quot; face=&quot;Times New Roman&quot;&gt;Contraseña&lt;/font&gt;" style="rounded=0;whiteSpace=wrap;html=1;fillColor=#FFE100;gradientColor=none;" vertex="1" parent="l1Qrcl0CT77MVCxRaoeZ-1">
          <mxGeometry x="-415" y="500" width="460" height="100" as="geometry" />
        </mxCell>
        <mxCell id="GrH6y4oyKHQj6D7hcb3w-5" value="&lt;font face=&quot;Times New Roman&quot;&gt;&lt;font style=&quot;font-size: 45px&quot;&gt;Usuario&lt;/font&gt;&lt;font style=&quot;font-size: 30px&quot;&gt;&amp;nbsp;&lt;/font&gt;&lt;/font&gt;" style="rounded=0;whiteSpace=wrap;html=1;fillColor=#FFE100;gradientColor=none;fontSize=15;" vertex="1" parent="l1Qrcl0CT77MVCxRaoeZ-1">
          <mxGeometry x="-420" y="350" width="460" height="100" as="geometry" />
        </mxCell>
        <mxCell id="GrH6y4oyKHQj6D7hcb3w-6" value="&lt;font style=&quot;font-size: 32px&quot;&gt;Logo&lt;/font&gt;" style="ellipse;whiteSpace=wrap;html=1;fillColor=#FFE100;gradientColor=none;fontSize=15;" vertex="1" parent="l1Qrcl0CT77MVCxRaoeZ-1">
          <mxGeometry x="-400" y="140" width="380" height="140" as="geometry" />
        </mxCell>
      </root>
    </mxGraphModel>
  </diagram>
  <diagram id="NCsM_v1DBcz_VJW76KpE" name="Page-5">
    <mxGraphModel dx="2088" dy="916" grid="1" gridSize="10" guides="1" tooltips="1" connect="1" arrows="1" fold="1" page="1" pageScale="1" pageWidth="827" pageHeight="1169" math="0" shadow="0">
      <root>
        <mxCell id="ofoTl-NfReBwXsJWdxUw-0" />
        <mxCell id="ofoTl-NfReBwXsJWdxUw-1" parent="ofoTl-NfReBwXsJWdxUw-0" />
        <mxCell id="-5FOoYAlYIw2xZufIIIp-0" value="" style="whiteSpace=wrap;html=1;aspect=fixed;" vertex="1" parent="ofoTl-NfReBwXsJWdxUw-1">
          <mxGeometry x="-552.5" y="460" width="1020" height="1020" as="geometry" />
        </mxCell>
        <mxCell id="-5FOoYAlYIw2xZufIIIp-1" value="" style="shape=offPageConnector;whiteSpace=wrap;html=1;fillColor=#FFE100;gradientColor=none;fontSize=31;" vertex="1" parent="ofoTl-NfReBwXsJWdxUw-1">
          <mxGeometry x="-370" y="690" width="660" height="510" as="geometry" />
        </mxCell>
        <mxCell id="-5FOoYAlYIw2xZufIIIp-2" value="" style="shape=loopLimit;whiteSpace=wrap;html=1;fillColor=#FFE100;gradientColor=none;fontSize=31;rotation=-180;" vertex="1" parent="ofoTl-NfReBwXsJWdxUw-1">
          <mxGeometry x="-370" y="940" width="660" height="390" as="geometry" />
        </mxCell>
        <mxCell id="-5FOoYAlYIw2xZufIIIp-3" value="" style="shape=document;whiteSpace=wrap;html=1;boundedLbl=1;rotation=-180;verticalAlign=middle;" vertex="1" parent="ofoTl-NfReBwXsJWdxUw-1">
          <mxGeometry x="-375" y="630" width="665" height="160" as="geometry" />
        </mxCell>
        <mxCell id="-5FOoYAlYIw2xZufIIIp-4" value="&lt;font style=&quot;font-size: 32px&quot;&gt;Logo&lt;/font&gt;" style="ellipse;whiteSpace=wrap;html=1;fillColor=#FFE100;gradientColor=none;fontSize=15;" vertex="1" parent="ofoTl-NfReBwXsJWdxUw-1">
          <mxGeometry x="-245" y="680" width="350" height="110" as="geometry" />
        </mxCell>
        <mxCell id="-5FOoYAlYIw2xZufIIIp-5" value="Usuario *" style="text;html=1;strokeColor=none;fillColor=none;align=center;verticalAlign=middle;whiteSpace=wrap;rounded=0;fontSize=31;" vertex="1" parent="ofoTl-NfReBwXsJWdxUw-1">
          <mxGeometry x="-280" y="820" width="140" height="20" as="geometry" />
        </mxCell>
        <mxCell id="-5FOoYAlYIw2xZufIIIp-6" value="" style="rounded=1;whiteSpace=wrap;html=1;fillColor=#FFE100;gradientColor=none;fontSize=31;" vertex="1" parent="ofoTl-NfReBwXsJWdxUw-1">
          <mxGeometry x="-280" y="1030" width="440" height="80" as="geometry" />
        </mxCell>
        <mxCell id="-5FOoYAlYIw2xZufIIIp-7" value="" style="rounded=1;whiteSpace=wrap;html=1;fillColor=#FFE100;gradientColor=none;fontSize=31;" vertex="1" parent="ofoTl-NfReBwXsJWdxUw-1">
          <mxGeometry x="-280" y="850" width="440" height="80" as="geometry" />
        </mxCell>
        <mxCell id="-5FOoYAlYIw2xZufIIIp-8" value="Contraseña *" style="text;html=1;strokeColor=none;fillColor=none;align=center;verticalAlign=middle;whiteSpace=wrap;rounded=0;fontSize=31;" vertex="1" parent="ofoTl-NfReBwXsJWdxUw-1">
          <mxGeometry x="-280" y="990" width="190" height="20" as="geometry" />
        </mxCell>
        <mxCell id="-5FOoYAlYIw2xZufIIIp-9" value="&lt;span style=&quot;font-family: &amp;#34;times new roman&amp;#34; ; font-size: 45px&quot;&gt;Inició de sesión&amp;nbsp;&lt;/span&gt;" style="rounded=1;whiteSpace=wrap;html=1;fillColor=#FFE100;gradientColor=none;fontSize=31;" vertex="1" parent="ofoTl-NfReBwXsJWdxUw-1">
          <mxGeometry x="-280" y="1169" width="440" height="80" as="geometry" />
        </mxCell>
      </root>
    </mxGraphModel>
  </diagram>
  <diagram id="pAuZgRfsZHfjzhcMy9B1" name="Page-6">
    <mxGraphModel dx="2719" dy="1374" grid="1" gridSize="10" guides="1" tooltips="1" connect="1" arrows="1" fold="1" page="1" pageScale="1" pageWidth="827" pageHeight="1169" math="0" shadow="0">
      <root>
        <mxCell id="NbyH2fiFBuvqab68wXy0-0" />
        <mxCell id="NbyH2fiFBuvqab68wXy0-1" parent="NbyH2fiFBuvqab68wXy0-0" />
        <mxCell id="Su2QUrwuwK5QV4WWT5kS-0" value="" style="whiteSpace=wrap;html=1;aspect=fixed;" vertex="1" parent="NbyH2fiFBuvqab68wXy0-1">
          <mxGeometry x="-560" y="320" width="1030" height="1030" as="geometry" />
        </mxCell>
        <mxCell id="Su2QUrwuwK5QV4WWT5kS-1" value="&lt;font style=&quot;font-size: 32px&quot;&gt;Logo&lt;/font&gt;" style="ellipse;whiteSpace=wrap;html=1;fontSize=15;" vertex="1" parent="NbyH2fiFBuvqab68wXy0-1">
          <mxGeometry x="-360" y="480" width="690" height="190" as="geometry" />
        </mxCell>
        <mxCell id="Su2QUrwuwK5QV4WWT5kS-2" value="&lt;span style=&quot;color: rgba(0 , 0 , 0 , 0) ; font-family: monospace ; font-size: 0px&quot;&gt;%3CmxGraphModel%3E%3Croot%3E%3CmxCell%20id%3D%220%22%2F%3E%3CmxCell%20id%3D%221%22%20parent%3D%220%22%2F%3E%3CmxCell%20id%3D%222%22%20value%3D%22%26lt%3Bfont%20style%3D%26quot%3Bfont-size%3A%2045px%26quot%3B%20face%3D%26quot%3BTimes%20New%20Roman%26quot%3B%26gt%3BContrase%C3%B1a%26lt%3B%2Ffont%26gt%3B%22%20style%3D%22rounded%3D0%3BwhiteSpace%3Dwrap%3Bhtml%3D1%3BfillColor%3D%23FFE100%3BgradientColor%3Dnone%3B%22%20vertex%3D%221%22%20parent%3D%221%22%3E%3CmxGeometry%20x%3D%22-420%22%20y%3D%22680%22%20width%3D%22460%22%20height%3D%22100%22%20as%3D%22geometry%22%2F%3E%3C%2FmxCell%3E%3CmxCell%20id%3D%223%22%20value%3D%22%26lt%3Bfont%20face%3D%26quot%3BTimes%20New%20Roman%26quot%3B%26gt%3B%26lt%3Bfont%20style%3D%26quot%3Bfont-size%3A%2045px%26quot%3B%26gt%3BUsuario%26lt%3B%2Ffont%26gt%3B%26lt%3Bfont%20style%3D%26quot%3Bfont-size%3A%2030px%26quot%3B%26gt%3B%26amp%3Bnbsp%3B%26lt%3B%2Ffont%26gt%3B%26lt%3B%2Ffont%26gt%3B%22%20style%3D%22rounded%3D0%3BwhiteSpace%3Dwrap%3Bhtml%3D1%3BfillColor%3D%23FFE100%3BgradientColor%3Dnone%3BfontSize%3D15%3B%22%20vertex%3D%221%22%20parent%3D%221%22%3E%3CmxGeometry%20x%3D%22-410%22%20y%3D%22500%22%20width%3D%22460%22%20height%3D%22100%22%20as%3D%22geometry%22%2F%3E%3C%2FmxCell%3E%3C%2Froot%3E%3C%2FmxGraphModel%3E&lt;/span&gt;&lt;span style=&quot;color: rgba(0 , 0 , 0 , 0) ; font-family: monospace ; font-size: 0px&quot;&gt;%3CmxGraphModel%3E%3Croot%3E%3CmxCell%20id%3D%220%22%2F%3E%3CmxCell%20id%3D%221%22%20parent%3D%220%22%2F%3E%3CmxCell%20id%3D%222%22%20value%3D%22%26lt%3Bfont%20style%3D%26quot%3Bfont-size%3A%2045px%26quot%3B%20face%3D%26quot%3BTimes%20New%20Roman%26quot%3B%26gt%3BContrase%C3%B1a%26lt%3B%2Ffont%26gt%3B%22%20style%3D%22rounded%3D0%3BwhiteSpace%3Dwrap%3Bhtml%3D1%3BfillColor%3D%23FFE100%3BgradientColor%3Dnone%3B%22%20vertex%3D%221%22%20parent%3D%221%22%3E%3CmxGeometry%20x%3D%22-420%22%20y%3D%22680%22%20width%3D%22460%22%20height%3D%22100%22%20as%3D%22geometry%22%2F%3E%3C%2FmxCell%3E%3CmxCell%20id%3D%223%22%20value%3D%22%26lt%3Bfont%20face%3D%26quot%3BTimes%20New%20Roman%26quot%3B%26gt%3B%26lt%3Bfont%20style%3D%26quot%3Bfont-size%3A%2045px%26quot%3B%26gt%3BUsuario%26lt%3B%2Ffont%26gt%3B%26lt%3Bfont%20style%3D%26quot%3Bfont-size%3A%2030px%26quot%3B%26gt%3B%26amp%3Bnbsp%3B%26lt%3B%2Ffont%26gt%3B%26lt%3B%2Ffont%26gt%3B%22%20style%3D%22rounded%3D0%3BwhiteSpace%3Dwrap%3Bhtml%3D1%3BfillColor%3D%23FFE100%3BgradientColor%3Dnone%3BfontSize%3D15%3B%22%20vertex%3D%221%22%20parent%3D%221%22%3E%3CmxGeometry%20x%3D%22-410%22%20y%3D%22500%22%20width%3D%22460%22%20height%3D%22100%22%20as%3D%22geometry%22%2F%3E%3C%2FmxCell%3E%3C%2Froot%3E%3C%2FmxGraphModel%3E&lt;/span&gt;&lt;span style=&quot;color: rgba(0 , 0 , 0 , 0) ; font-family: monospace ; font-size: 0px&quot;&gt;%3CmxGraphModel%3E%3Croot%3E%3CmxCell%20id%3D%220%22%2F%3E%3CmxCell%20id%3D%221%22%20parent%3D%220%22%2F%3E%3CmxCell%20id%3D%222%22%20value%3D%22%26lt%3Bfont%20style%3D%26quot%3Bfont-size%3A%2045px%26quot%3B%20face%3D%26quot%3BTimes%20New%20Roman%26quot%3B%26gt%3BContrase%C3%B1a%26lt%3B%2Ffont%26gt%3B%22%20style%3D%22rounded%3D0%3BwhiteSpace%3Dwrap%3Bhtml%3D1%3BfillColor%3D%23FFE100%3BgradientColor%3Dnone%3B%22%20vertex%3D%221%22%20parent%3D%221%22%3E%3CmxGeometry%20x%3D%22-420%22%20y%3D%22680%22%20width%3D%22460%22%20height%3D%22100%22%20as%3D%22geometry%22%2F%3E%3C%2FmxCell%3E%3CmxCell%20id%3D%223%22%20value%3D%22%26lt%3Bfont%20face%3D%26quot%3BTimes%20New%20Roman%26quot%3B%26gt%3B%26lt%3Bfont%20style%3D%26quot%3Bfont-size%3A%2045px%26quot%3B%26gt%3BUsuario%26lt%3B%2Ffont%26gt%3B%26lt%3Bfont%20style%3D%26quot%3Bfont-size%3A%2030px%26quot%3B%26gt%3B%26amp%3Bnbsp%3B%26lt%3B%2Ffont%26gt%3B%26lt%3B%2Ffont%26gt%3B%22%20style%3D%22rounded%3D0%3BwhiteSpace%3Dwrap%3Bhtml%3D1%3BfillColor%3D%23FFE100%3BgradientColor%3Dnone%3BfontSize%3D15%3B%22%20vertex%3D%221%22%20parent%3D%221%22%3E%3CmxGeometry%20x%3D%22-410%22%20y%3D%22500%22%20width%3D%22460%22%20height%3D%22100%22%20as%3D%22geometry%22%2F%3E%3C%2FmxCell%3E%3C%2Froot%3E%3C%2FmxGraphModel%3E&lt;/span&gt;&lt;span style=&quot;color: rgba(0 , 0 , 0 , 0) ; font-family: monospace ; font-size: 0px&quot;&gt;%3CmxGraphModel%3E%3Croot%3E%3CmxCell%20id%3D%220%22%2F%3E%3CmxCell%20id%3D%221%22%20parent%3D%220%22%2F%3E%3CmxCell%20id%3D%222%22%20value%3D%22%26lt%3Bfont%20style%3D%26quot%3Bfont-size%3A%2045px%26quot%3B%20face%3D%26quot%3BTimes%20New%20Roman%26quot%3B%26gt%3BContrase%C3%B1a%26lt%3B%2Ffont%26gt%3B%22%20style%3D%22rounded%3D0%3BwhiteSpace%3Dwrap%3Bhtml%3D1%3BfillColor%3D%23FFE100%3BgradientColor%3Dnone%3B%22%20vertex%3D%221%22%20parent%3D%221%22%3E%3CmxGeometry%20x%3D%22-420%22%20y%3D%22680%22%20width%3D%22460%22%20height%3D%22100%22%20as%3D%22geometry%22%2F%3E%3C%2FmxCell%3E%3CmxCell%20id%3D%223%22%20value%3D%22%26lt%3Bfont%20face%3D%26quot%3BTimes%20New%20Roman%26quot%3B%26gt%3B%26lt%3Bfont%20style%3D%26quot%3Bfont-size%3A%2045px%26quot%3B%26gt%3BUsuario%26lt%3B%2Ffont%26gt%3B%26lt%3Bfont%20style%3D%26quot%3Bfont-size%3A%2030px%26quot%3B%26gt%3B%26amp%3Bnbsp%3B%26lt%3B%2Ffont%26gt%3B%26lt%3B%2Ffont%26gt%3B%22%20style%3D%22rounded%3D0%3BwhiteSpace%3Dwrap%3Bhtml%3D1%3BfillColor%3D%23FFE100%3BgradientColor%3Dnone%3BfontSize%3D15%3B%22%20vertex%3D%221%22%20parent%3D%221%22%3E%3CmxGeometry%20x%3D%22-410%22%20y%3D%22500%22%20width%3D%22460%22%20height%3D%22100%22%20as%3D%22geometry%22%2F%3E%3C%2FmxCell%3E%3C%2Froot%3E%3C%2FmxGraphModel%3E&lt;/span&gt;&lt;span style=&quot;color: rgba(0 , 0 , 0 , 0) ; font-family: monospace ; font-size: 0px&quot;&gt;%3CmxGraphModel%3E%3Croot%3E%3CmxCell%20id%3D%220%22%2F%3E%3CmxCell%20id%3D%221%22%20parent%3D%220%22%2F%3E%3CmxCell%20id%3D%222%22%20value%3D%22%26lt%3Bfont%20style%3D%26quot%3Bfont-size%3A%2045px%26quot%3B%20face%3D%26quot%3BTimes%20New%20Roman%26quot%3B%26gt%3BContrase%C3%B1a%26lt%3B%2Ffont%26gt%3B%22%20style%3D%22rounded%3D0%3BwhiteSpace%3Dwrap%3Bhtml%3D1%3BfillColor%3D%23FFE100%3BgradientColor%3Dnone%3B%22%20vertex%3D%221%22%20parent%3D%221%22%3E%3CmxGeometry%20x%3D%22-420%22%20y%3D%22680%22%20width%3D%22460%22%20height%3D%22100%22%20as%3D%22geometry%22%2F%3E%3C%2FmxCell%3E%3CmxCell%20id%3D%223%22%20value%3D%22%26lt%3Bfont%20face%3D%26quot%3BTimes%20New%20Roman%26quot%3B%26gt%3B%26lt%3Bfont%20style%3D%26quot%3Bfont-size%3A%2045px%26quot%3B%26gt%3BUsuario%26lt%3B%2Ffont%26gt%3B%26lt%3Bfont%20style%3D%26quot%3Bfont-size%3A%2030px%26quot%3B%26gt%3B%26amp%3Bnbsp%3B%26lt%3B%2Ffont%26gt%3B%26lt%3B%2Ffont%26gt%3B%22%20style%3D%22rounded%3D0%3BwhiteSpace%3Dwrap%3Bhtml%3D1%3BfillColor%3D%23FFE100%3BgradientColor%3Dnone%3BfontSize%3D15%3B%22%20vertex%3D%221%22%20parent%3D%221%22%3E%3CmxGeometry%20x%3D%22-410%22%20y%3D%22500%22%20width%3D%22460%22%20height%3D%22100%22%20as%3D%22geometry%22%2F%3E%3C%2FmxCell%3E%3C%2Froot%3E%3C%2FmxGraphModel%3E&lt;/span&gt;" style="whiteSpace=wrap;html=1;aspect=fixed;fontSize=31;" vertex="1" parent="NbyH2fiFBuvqab68wXy0-1">
          <mxGeometry x="-325" y="680" width="630" height="630" as="geometry" />
        </mxCell>
        <mxCell id="Su2QUrwuwK5QV4WWT5kS-3" value="&lt;font style=&quot;font-size: 45px&quot; face=&quot;Times New Roman&quot;&gt;Contraseña&lt;/font&gt;" style="rounded=0;whiteSpace=wrap;html=1;" vertex="1" parent="NbyH2fiFBuvqab68wXy0-1">
          <mxGeometry x="-248.75" y="890" width="438.75" height="90" as="geometry" />
        </mxCell>
        <mxCell id="Su2QUrwuwK5QV4WWT5kS-4" value="&lt;font face=&quot;Times New Roman&quot;&gt;&lt;font style=&quot;font-size: 45px&quot;&gt;Usuario&lt;/font&gt;&lt;font style=&quot;font-size: 30px&quot;&gt;&amp;nbsp;&lt;/font&gt;&lt;/font&gt;" style="rounded=0;whiteSpace=wrap;html=1;fontSize=15;" vertex="1" parent="NbyH2fiFBuvqab68wXy0-1">
          <mxGeometry x="-250" y="720" width="435" height="90" as="geometry" />
        </mxCell>
        <mxCell id="Su2QUrwuwK5QV4WWT5kS-5" value="Inició de sesión" style="labelPosition=center;verticalLabelPosition=middle;align=center;html=1;shape=mxgraph.basic.button;dx=10;fillColor=#FFE100;gradientColor=none;fontSize=31;" vertex="1" parent="NbyH2fiFBuvqab68wXy0-1">
          <mxGeometry x="-250" y="1040" width="500" height="150" as="geometry" />
        </mxCell>
        <mxCell id="Su2QUrwuwK5QV4WWT5kS-6" value="" style="verticalLabelPosition=bottom;verticalAlign=top;html=1;shape=mxgraph.basic.half_circle;fontSize=31;rotation=-165;" vertex="1" parent="NbyH2fiFBuvqab68wXy0-1">
          <mxGeometry x="-390" y="400" width="170" height="90" as="geometry" />
        </mxCell>
        <mxCell id="Su2QUrwuwK5QV4WWT5kS-7" value="" style="shape=loopLimit;whiteSpace=wrap;html=1;fontSize=31;rotation=-120;strokeColor=#d6b656;fillColor=#FFE100;" vertex="1" parent="NbyH2fiFBuvqab68wXy0-1">
          <mxGeometry x="-491.16" y="356.65" width="210" height="230" as="geometry" />
        </mxCell>
      </root>
    </mxGraphModel>
  </diagram>
  <diagram id="fcWT6go7kLuygCGFOcM2" name="Page-7">
    <mxGraphModel dx="2323" dy="824" grid="1" gridSize="10" guides="1" tooltips="1" connect="1" arrows="1" fold="1" page="1" pageScale="1" pageWidth="827" pageHeight="1169" math="0" shadow="0">
      <root>
        <mxCell id="BcTZKHsFDsie6I6etl27-0" />
        <mxCell id="BcTZKHsFDsie6I6etl27-1" parent="BcTZKHsFDsie6I6etl27-0" />
        <mxCell id="yhl8U48crjhc9nhpg22l-0" value="" style="whiteSpace=wrap;html=1;aspect=fixed;" parent="BcTZKHsFDsie6I6etl27-1" vertex="1">
          <mxGeometry x="-720" width="770" height="770" as="geometry" />
        </mxCell>
        <mxCell id="yhl8U48crjhc9nhpg22l-1" value="" style="verticalLabelPosition=bottom;verticalAlign=top;html=1;shape=trapezoid;perimeter=trapezoidPerimeter;whiteSpace=wrap;size=0.23;arcSize=10;flipV=1;strokeColor=#B09500;fontColor=#ffffff;fillColor=#FFE100;" parent="BcTZKHsFDsie6I6etl27-1" vertex="1">
          <mxGeometry x="-690" y="190" width="710" height="540" as="geometry" />
        </mxCell>
        <mxCell id="yhl8U48crjhc9nhpg22l-2" value="" style="shape=document;whiteSpace=wrap;html=1;boundedLbl=1;rotation=-180;" parent="BcTZKHsFDsie6I6etl27-1" vertex="1">
          <mxGeometry x="-700.94" y="30" width="710.94" height="200" as="geometry" />
        </mxCell>
        <mxCell id="yhl8U48crjhc9nhpg22l-3" value="&lt;font style=&quot;font-size: 45px&quot; face=&quot;Times New Roman&quot;&gt;Inició de sesión&amp;nbsp;&lt;/font&gt;" style="rounded=0;whiteSpace=wrap;html=1;fillColor=#FFE100;gradientColor=none;" parent="BcTZKHsFDsie6I6etl27-1" vertex="1">
          <mxGeometry x="-520" y="590" width="380" height="70" as="geometry" />
        </mxCell>
        <mxCell id="yhl8U48crjhc9nhpg22l-4" value="&lt;font style=&quot;font-size: 45px&quot; face=&quot;Times New Roman&quot;&gt;Contraseña&lt;/font&gt;" style="rounded=0;whiteSpace=wrap;html=1;fillColor=#FFE100;gradientColor=none;" parent="BcTZKHsFDsie6I6etl27-1" vertex="1">
          <mxGeometry x="-535.47" y="450" width="380" height="65" as="geometry" />
        </mxCell>
        <mxCell id="yhl8U48crjhc9nhpg22l-5" value="&lt;font face=&quot;Times New Roman&quot;&gt;&lt;font style=&quot;font-size: 45px&quot;&gt;Usuario&lt;/font&gt;&lt;font style=&quot;font-size: 30px&quot;&gt;&amp;nbsp;&lt;/font&gt;&lt;/font&gt;" style="rounded=0;whiteSpace=wrap;html=1;fillColor=#FFE100;gradientColor=none;fontSize=15;" parent="BcTZKHsFDsie6I6etl27-1" vertex="1">
          <mxGeometry x="-535.47" y="300" width="380" height="70" as="geometry" />
        </mxCell>
        <mxCell id="yhl8U48crjhc9nhpg22l-6" value="&lt;font style=&quot;font-size: 32px&quot;&gt;Logo&lt;/font&gt;" style="ellipse;whiteSpace=wrap;html=1;fillColor=#FFE100;gradientColor=none;fontSize=15;" parent="BcTZKHsFDsie6I6etl27-1" vertex="1">
          <mxGeometry x="-510" y="90" width="360" height="110" as="geometry" />
        </mxCell>
      </root>
    </mxGraphModel>
  </diagram>
  <diagram id="P7EPPzTLhFKg9nqAHSbk" name="Page-8">
    <mxGraphModel dx="2323" dy="824" grid="1" gridSize="10" guides="1" tooltips="1" connect="1" arrows="1" fold="1" page="1" pageScale="1" pageWidth="827" pageHeight="1169" math="0" shadow="0">
      <root>
        <mxCell id="bYm98t_knfGhN5Hn8p4h-0" />
        <mxCell id="bYm98t_knfGhN5Hn8p4h-1" parent="bYm98t_knfGhN5Hn8p4h-0" />
        <mxCell id="26eAwVeCV4XXV_5AcOub-0" value="" style="whiteSpace=wrap;html=1;aspect=fixed;" parent="bYm98t_knfGhN5Hn8p4h-1" vertex="1">
          <mxGeometry x="-552.5" y="460" width="770" height="770" as="geometry" />
        </mxCell>
        <mxCell id="26eAwVeCV4XXV_5AcOub-1" value="" style="shape=offPageConnector;whiteSpace=wrap;html=1;fillColor=#FFE100;gradientColor=none;fontSize=31;" parent="bYm98t_knfGhN5Hn8p4h-1" vertex="1">
          <mxGeometry x="-470" y="620" width="650" height="500" as="geometry" />
        </mxCell>
        <mxCell id="26eAwVeCV4XXV_5AcOub-2" value="" style="shape=loopLimit;whiteSpace=wrap;html=1;fillColor=#FFE100;gradientColor=none;fontSize=31;rotation=-180;" parent="bYm98t_knfGhN5Hn8p4h-1" vertex="1">
          <mxGeometry x="-470" y="930" width="650" height="300" as="geometry" />
        </mxCell>
        <mxCell id="26eAwVeCV4XXV_5AcOub-3" value="" style="shape=document;whiteSpace=wrap;html=1;boundedLbl=1;rotation=-180;verticalAlign=middle;" parent="bYm98t_knfGhN5Hn8p4h-1" vertex="1">
          <mxGeometry x="-485" y="460" width="665" height="160" as="geometry" />
        </mxCell>
        <mxCell id="26eAwVeCV4XXV_5AcOub-4" value="&lt;font style=&quot;font-size: 32px&quot;&gt;Logo&lt;/font&gt;" style="ellipse;whiteSpace=wrap;html=1;fillColor=#FFE100;gradientColor=none;fontSize=15;" parent="bYm98t_knfGhN5Hn8p4h-1" vertex="1">
          <mxGeometry x="-332.5" y="500" width="350" height="110" as="geometry" />
        </mxCell>
        <mxCell id="26eAwVeCV4XXV_5AcOub-5" value="Usuario *" style="text;html=1;strokeColor=none;fillColor=none;align=center;verticalAlign=middle;whiteSpace=wrap;rounded=0;fontSize=31;" parent="bYm98t_knfGhN5Hn8p4h-1" vertex="1">
          <mxGeometry x="-380" y="650" width="140" height="20" as="geometry" />
        </mxCell>
        <mxCell id="26eAwVeCV4XXV_5AcOub-6" value="" style="rounded=1;whiteSpace=wrap;html=1;fillColor=#FFE100;gradientColor=none;fontSize=31;" parent="bYm98t_knfGhN5Hn8p4h-1" vertex="1">
          <mxGeometry x="-390" y="860" width="440" height="80" as="geometry" />
        </mxCell>
        <mxCell id="26eAwVeCV4XXV_5AcOub-7" value="" style="rounded=1;whiteSpace=wrap;html=1;fillColor=#FFE100;gradientColor=none;fontSize=31;" parent="bYm98t_knfGhN5Hn8p4h-1" vertex="1">
          <mxGeometry x="-390" y="700" width="440" height="80" as="geometry" />
        </mxCell>
        <mxCell id="26eAwVeCV4XXV_5AcOub-8" value="Contraseña *" style="text;html=1;strokeColor=none;fillColor=none;align=center;verticalAlign=middle;whiteSpace=wrap;rounded=0;fontSize=31;" parent="bYm98t_knfGhN5Hn8p4h-1" vertex="1">
          <mxGeometry x="-400" y="820" width="190" height="20" as="geometry" />
        </mxCell>
        <mxCell id="26eAwVeCV4XXV_5AcOub-9" value="&lt;span style=&quot;font-family: &amp;#34;times new roman&amp;#34; ; font-size: 45px&quot;&gt;Inició de sesión&amp;nbsp;&lt;/span&gt;" style="rounded=1;whiteSpace=wrap;html=1;fillColor=#FFE100;gradientColor=none;fontSize=31;" parent="bYm98t_knfGhN5Hn8p4h-1" vertex="1">
          <mxGeometry x="-390" y="1010" width="440" height="80" as="geometry" />
        </mxCell>
        <mxCell id="2DkzZiC_1kdtUvmUZ5nY-0" style="edgeStyle=orthogonalEdgeStyle;rounded=0;orthogonalLoop=1;jettySize=auto;html=1;exitX=0.5;exitY=1;exitDx=0;exitDy=0;" edge="1" parent="bYm98t_knfGhN5Hn8p4h-1" source="26eAwVeCV4XXV_5AcOub-8" target="26eAwVeCV4XXV_5AcOub-8">
          <mxGeometry relative="1" as="geometry" />
        </mxCell>
      </root>
    </mxGraphModel>
  </diagram>
  <diagram id="zmqVhRwE0OYewR8AdqTQ" name="Page-9">
    <mxGraphModel dx="2323" dy="824" grid="1" gridSize="10" guides="1" tooltips="1" connect="1" arrows="1" fold="1" page="1" pageScale="1" pageWidth="827" pageHeight="1169" math="0" shadow="0">
      <root>
        <mxCell id="4__SqXh57tiI5D8x_Wbl-0" />
        <mxCell id="4__SqXh57tiI5D8x_Wbl-1" parent="4__SqXh57tiI5D8x_Wbl-0" />
        <mxCell id="Tl5-UOa2IrfMBSmksurX-0" value="" style="whiteSpace=wrap;html=1;aspect=fixed;" parent="4__SqXh57tiI5D8x_Wbl-1" vertex="1">
          <mxGeometry x="-500" y="340" width="770" height="770" as="geometry" />
        </mxCell>
        <mxCell id="Tl5-UOa2IrfMBSmksurX-1" value="&lt;font style=&quot;font-size: 32px&quot;&gt;Logo&lt;/font&gt;" style="ellipse;whiteSpace=wrap;html=1;fontSize=15;" parent="4__SqXh57tiI5D8x_Wbl-1" vertex="1">
          <mxGeometry x="-360" y="480" width="560" height="150" as="geometry" />
        </mxCell>
        <mxCell id="Tl5-UOa2IrfMBSmksurX-2" value="&lt;span style=&quot;color: rgba(0 , 0 , 0 , 0) ; font-family: monospace ; font-size: 0px&quot;&gt;%3CmxGraphModel%3E%3Croot%3E%3CmxCell%20id%3D%220%22%2F%3E%3CmxCell%20id%3D%221%22%20parent%3D%220%22%2F%3E%3CmxCell%20id%3D%222%22%20value%3D%22%26lt%3Bfont%20style%3D%26quot%3Bfont-size%3A%2045px%26quot%3B%20face%3D%26quot%3BTimes%20New%20Roman%26quot%3B%26gt%3BContrase%C3%B1a%26lt%3B%2Ffont%26gt%3B%22%20style%3D%22rounded%3D0%3BwhiteSpace%3Dwrap%3Bhtml%3D1%3BfillColor%3D%23FFE100%3BgradientColor%3Dnone%3B%22%20vertex%3D%221%22%20parent%3D%221%22%3E%3CmxGeometry%20x%3D%22-420%22%20y%3D%22680%22%20width%3D%22460%22%20height%3D%22100%22%20as%3D%22geometry%22%2F%3E%3C%2FmxCell%3E%3CmxCell%20id%3D%223%22%20value%3D%22%26lt%3Bfont%20face%3D%26quot%3BTimes%20New%20Roman%26quot%3B%26gt%3B%26lt%3Bfont%20style%3D%26quot%3Bfont-size%3A%2045px%26quot%3B%26gt%3BUsuario%26lt%3B%2Ffont%26gt%3B%26lt%3Bfont%20style%3D%26quot%3Bfont-size%3A%2030px%26quot%3B%26gt%3B%26amp%3Bnbsp%3B%26lt%3B%2Ffont%26gt%3B%26lt%3B%2Ffont%26gt%3B%22%20style%3D%22rounded%3D0%3BwhiteSpace%3Dwrap%3Bhtml%3D1%3BfillColor%3D%23FFE100%3BgradientColor%3Dnone%3BfontSize%3D15%3B%22%20vertex%3D%221%22%20parent%3D%221%22%3E%3CmxGeometry%20x%3D%22-410%22%20y%3D%22500%22%20width%3D%22460%22%20height%3D%22100%22%20as%3D%22geometry%22%2F%3E%3C%2FmxCell%3E%3C%2Froot%3E%3C%2FmxGraphModel%3E&lt;/span&gt;&lt;span style=&quot;color: rgba(0 , 0 , 0 , 0) ; font-family: monospace ; font-size: 0px&quot;&gt;%3CmxGraphModel%3E%3Croot%3E%3CmxCell%20id%3D%220%22%2F%3E%3CmxCell%20id%3D%221%22%20parent%3D%220%22%2F%3E%3CmxCell%20id%3D%222%22%20value%3D%22%26lt%3Bfont%20style%3D%26quot%3Bfont-size%3A%2045px%26quot%3B%20face%3D%26quot%3BTimes%20New%20Roman%26quot%3B%26gt%3BContrase%C3%B1a%26lt%3B%2Ffont%26gt%3B%22%20style%3D%22rounded%3D0%3BwhiteSpace%3Dwrap%3Bhtml%3D1%3BfillColor%3D%23FFE100%3BgradientColor%3Dnone%3B%22%20vertex%3D%221%22%20parent%3D%221%22%3E%3CmxGeometry%20x%3D%22-420%22%20y%3D%22680%22%20width%3D%22460%22%20height%3D%22100%22%20as%3D%22geometry%22%2F%3E%3C%2FmxCell%3E%3CmxCell%20id%3D%223%22%20value%3D%22%26lt%3Bfont%20face%3D%26quot%3BTimes%20New%20Roman%26quot%3B%26gt%3B%26lt%3Bfont%20style%3D%26quot%3Bfont-size%3A%2045px%26quot%3B%26gt%3BUsuario%26lt%3B%2Ffont%26gt%3B%26lt%3Bfont%20style%3D%26quot%3Bfont-size%3A%2030px%26quot%3B%26gt%3B%26amp%3Bnbsp%3B%26lt%3B%2Ffont%26gt%3B%26lt%3B%2Ffont%26gt%3B%22%20style%3D%22rounded%3D0%3BwhiteSpace%3Dwrap%3Bhtml%3D1%3BfillColor%3D%23FFE100%3BgradientColor%3Dnone%3BfontSize%3D15%3B%22%20vertex%3D%221%22%20parent%3D%221%22%3E%3CmxGeometry%20x%3D%22-410%22%20y%3D%22500%22%20width%3D%22460%22%20height%3D%22100%22%20as%3D%22geometry%22%2F%3E%3C%2FmxCell%3E%3C%2Froot%3E%3C%2FmxGraphModel%3E&lt;/span&gt;&lt;span style=&quot;color: rgba(0 , 0 , 0 , 0) ; font-family: monospace ; font-size: 0px&quot;&gt;%3CmxGraphModel%3E%3Croot%3E%3CmxCell%20id%3D%220%22%2F%3E%3CmxCell%20id%3D%221%22%20parent%3D%220%22%2F%3E%3CmxCell%20id%3D%222%22%20value%3D%22%26lt%3Bfont%20style%3D%26quot%3Bfont-size%3A%2045px%26quot%3B%20face%3D%26quot%3BTimes%20New%20Roman%26quot%3B%26gt%3BContrase%C3%B1a%26lt%3B%2Ffont%26gt%3B%22%20style%3D%22rounded%3D0%3BwhiteSpace%3Dwrap%3Bhtml%3D1%3BfillColor%3D%23FFE100%3BgradientColor%3Dnone%3B%22%20vertex%3D%221%22%20parent%3D%221%22%3E%3CmxGeometry%20x%3D%22-420%22%20y%3D%22680%22%20width%3D%22460%22%20height%3D%22100%22%20as%3D%22geometry%22%2F%3E%3C%2FmxCell%3E%3CmxCell%20id%3D%223%22%20value%3D%22%26lt%3Bfont%20face%3D%26quot%3BTimes%20New%20Roman%26quot%3B%26gt%3B%26lt%3Bfont%20style%3D%26quot%3Bfont-size%3A%2045px%26quot%3B%26gt%3BUsuario%26lt%3B%2Ffont%26gt%3B%26lt%3Bfont%20style%3D%26quot%3Bfont-size%3A%2030px%26quot%3B%26gt%3B%26amp%3Bnbsp%3B%26lt%3B%2Ffont%26gt%3B%26lt%3B%2Ffont%26gt%3B%22%20style%3D%22rounded%3D0%3BwhiteSpace%3Dwrap%3Bhtml%3D1%3BfillColor%3D%23FFE100%3BgradientColor%3Dnone%3BfontSize%3D15%3B%22%20vertex%3D%221%22%20parent%3D%221%22%3E%3CmxGeometry%20x%3D%22-410%22%20y%3D%22500%22%20width%3D%22460%22%20height%3D%22100%22%20as%3D%22geometry%22%2F%3E%3C%2FmxCell%3E%3C%2Froot%3E%3C%2FmxGraphModel%3E&lt;/span&gt;&lt;span style=&quot;color: rgba(0 , 0 , 0 , 0) ; font-family: monospace ; font-size: 0px&quot;&gt;%3CmxGraphModel%3E%3Croot%3E%3CmxCell%20id%3D%220%22%2F%3E%3CmxCell%20id%3D%221%22%20parent%3D%220%22%2F%3E%3CmxCell%20id%3D%222%22%20value%3D%22%26lt%3Bfont%20style%3D%26quot%3Bfont-size%3A%2045px%26quot%3B%20face%3D%26quot%3BTimes%20New%20Roman%26quot%3B%26gt%3BContrase%C3%B1a%26lt%3B%2Ffont%26gt%3B%22%20style%3D%22rounded%3D0%3BwhiteSpace%3Dwrap%3Bhtml%3D1%3BfillColor%3D%23FFE100%3BgradientColor%3Dnone%3B%22%20vertex%3D%221%22%20parent%3D%221%22%3E%3CmxGeometry%20x%3D%22-420%22%20y%3D%22680%22%20width%3D%22460%22%20height%3D%22100%22%20as%3D%22geometry%22%2F%3E%3C%2FmxCell%3E%3CmxCell%20id%3D%223%22%20value%3D%22%26lt%3Bfont%20face%3D%26quot%3BTimes%20New%20Roman%26quot%3B%26gt%3B%26lt%3Bfont%20style%3D%26quot%3Bfont-size%3A%2045px%26quot%3B%26gt%3BUsuario%26lt%3B%2Ffont%26gt%3B%26lt%3Bfont%20style%3D%26quot%3Bfont-size%3A%2030px%26quot%3B%26gt%3B%26amp%3Bnbsp%3B%26lt%3B%2Ffont%26gt%3B%26lt%3B%2Ffont%26gt%3B%22%20style%3D%22rounded%3D0%3BwhiteSpace%3Dwrap%3Bhtml%3D1%3BfillColor%3D%23FFE100%3BgradientColor%3Dnone%3BfontSize%3D15%3B%22%20vertex%3D%221%22%20parent%3D%221%22%3E%3CmxGeometry%20x%3D%22-410%22%20y%3D%22500%22%20width%3D%22460%22%20height%3D%22100%22%20as%3D%22geometry%22%2F%3E%3C%2FmxCell%3E%3C%2Froot%3E%3C%2FmxGraphModel%3E&lt;/span&gt;&lt;span style=&quot;color: rgba(0 , 0 , 0 , 0) ; font-family: monospace ; font-size: 0px&quot;&gt;%3CmxGraphModel%3E%3Croot%3E%3CmxCell%20id%3D%220%22%2F%3E%3CmxCell%20id%3D%221%22%20parent%3D%220%22%2F%3E%3CmxCell%20id%3D%222%22%20value%3D%22%26lt%3Bfont%20style%3D%26quot%3Bfont-size%3A%2045px%26quot%3B%20face%3D%26quot%3BTimes%20New%20Roman%26quot%3B%26gt%3BContrase%C3%B1a%26lt%3B%2Ffont%26gt%3B%22%20style%3D%22rounded%3D0%3BwhiteSpace%3Dwrap%3Bhtml%3D1%3BfillColor%3D%23FFE100%3BgradientColor%3Dnone%3B%22%20vertex%3D%221%22%20parent%3D%221%22%3E%3CmxGeometry%20x%3D%22-420%22%20y%3D%22680%22%20width%3D%22460%22%20height%3D%22100%22%20as%3D%22geometry%22%2F%3E%3C%2FmxCell%3E%3CmxCell%20id%3D%223%22%20value%3D%22%26lt%3Bfont%20face%3D%26quot%3BTimes%20New%20Roman%26quot%3B%26gt%3B%26lt%3Bfont%20style%3D%26quot%3Bfont-size%3A%2045px%26quot%3B%26gt%3BUsuario%26lt%3B%2Ffont%26gt%3B%26lt%3Bfont%20style%3D%26quot%3Bfont-size%3A%2030px%26quot%3B%26gt%3B%26amp%3Bnbsp%3B%26lt%3B%2Ffont%26gt%3B%26lt%3B%2Ffont%26gt%3B%22%20style%3D%22rounded%3D0%3BwhiteSpace%3Dwrap%3Bhtml%3D1%3BfillColor%3D%23FFE100%3BgradientColor%3Dnone%3BfontSize%3D15%3B%22%20vertex%3D%221%22%20parent%3D%221%22%3E%3CmxGeometry%20x%3D%22-410%22%20y%3D%22500%22%20width%3D%22460%22%20height%3D%22100%22%20as%3D%22geometry%22%2F%3E%3C%2FmxCell%3E%3C%2Froot%3E%3C%2FmxGraphModel%3E&lt;/span&gt;" style="whiteSpace=wrap;html=1;aspect=fixed;fontSize=31;" parent="4__SqXh57tiI5D8x_Wbl-1" vertex="1">
          <mxGeometry x="-282.5" y="640" width="445" height="445" as="geometry" />
        </mxCell>
        <mxCell id="Tl5-UOa2IrfMBSmksurX-3" value="&lt;font style=&quot;font-size: 45px&quot; face=&quot;Times New Roman&quot;&gt;Contraseña&lt;/font&gt;" style="rounded=0;whiteSpace=wrap;html=1;" parent="4__SqXh57tiI5D8x_Wbl-1" vertex="1">
          <mxGeometry x="-260" y="760" width="388.75" height="80" as="geometry" />
        </mxCell>
        <mxCell id="Tl5-UOa2IrfMBSmksurX-4" value="&lt;font face=&quot;Times New Roman&quot;&gt;&lt;font style=&quot;font-size: 45px&quot;&gt;Usuario&lt;/font&gt;&lt;font style=&quot;font-size: 30px&quot;&gt;&amp;nbsp;&lt;/font&gt;&lt;/font&gt;" style="rounded=0;whiteSpace=wrap;html=1;fontSize=15;" parent="4__SqXh57tiI5D8x_Wbl-1" vertex="1">
          <mxGeometry x="-260" y="670" width="390" height="70" as="geometry" />
        </mxCell>
        <mxCell id="Tl5-UOa2IrfMBSmksurX-5" value="Inició de sesión" style="labelPosition=center;verticalLabelPosition=middle;align=center;html=1;shape=mxgraph.basic.button;dx=10;fillColor=#FFE100;gradientColor=none;fontSize=31;" parent="4__SqXh57tiI5D8x_Wbl-1" vertex="1">
          <mxGeometry x="-265" y="900" width="400" height="121" as="geometry" />
        </mxCell>
        <mxCell id="Tl5-UOa2IrfMBSmksurX-6" value="" style="verticalLabelPosition=bottom;verticalAlign=top;html=1;shape=mxgraph.basic.half_circle;fontSize=31;rotation=-165;" parent="4__SqXh57tiI5D8x_Wbl-1" vertex="1">
          <mxGeometry x="-370" y="400" width="170" height="90" as="geometry" />
        </mxCell>
        <mxCell id="Tl5-UOa2IrfMBSmksurX-7" value="" style="shape=loopLimit;whiteSpace=wrap;html=1;fontSize=31;rotation=-120;strokeColor=#d6b656;fillColor=#FFE100;" parent="4__SqXh57tiI5D8x_Wbl-1" vertex="1">
          <mxGeometry x="-450" y="375" width="170" height="210" as="geometry" />
        </mxCell>
      </root>
    </mxGraphModel>
  </diagram>
  <diagram id="TKaYrPt4oIZ1PZO7xX0B" name="Page-10">
    <mxGraphModel dx="1575" dy="412" grid="1" gridSize="10" guides="1" tooltips="1" connect="1" arrows="1" fold="1" page="1" pageScale="1" pageWidth="827" pageHeight="1169" math="0" shadow="0">
      <root>
        <mxCell id="EpILO0wRJ1sFS4nSIfSt-0" />
        <mxCell id="EpILO0wRJ1sFS4nSIfSt-1" parent="EpILO0wRJ1sFS4nSIfSt-0" />
        <mxCell id="EpILO0wRJ1sFS4nSIfSt-2" value="" style="whiteSpace=wrap;html=1;aspect=fixed;" vertex="1" parent="EpILO0wRJ1sFS4nSIfSt-1">
          <mxGeometry x="-720" width="790" height="790" as="geometry" />
        </mxCell>
        <mxCell id="EpILO0wRJ1sFS4nSIfSt-3" value="" style="verticalLabelPosition=bottom;verticalAlign=top;html=1;shape=trapezoid;perimeter=trapezoidPerimeter;whiteSpace=wrap;size=0.23;arcSize=10;flipV=1;strokeColor=#B09500;fontColor=#ffffff;fillColor=#FFE100;" vertex="1" parent="EpILO0wRJ1sFS4nSIfSt-1">
          <mxGeometry x="-690" y="190" width="740" height="590" as="geometry" />
        </mxCell>
        <mxCell id="EpILO0wRJ1sFS4nSIfSt-4" value="" style="shape=document;whiteSpace=wrap;html=1;boundedLbl=1;rotation=-180;" vertex="1" parent="EpILO0wRJ1sFS4nSIfSt-1">
          <mxGeometry x="-695.94" y="30" width="741.88" height="230" as="geometry" />
        </mxCell>
        <mxCell id="EpILO0wRJ1sFS4nSIfSt-5" value="&lt;font style=&quot;font-size: 45px&quot; face=&quot;Times New Roman&quot;&gt;Inició de sesión&amp;nbsp;&lt;/font&gt;" style="rounded=0;whiteSpace=wrap;html=1;fillColor=#FFE100;gradientColor=none;" vertex="1" parent="EpILO0wRJ1sFS4nSIfSt-1">
          <mxGeometry x="-500" y="600" width="380" height="70" as="geometry" />
        </mxCell>
        <mxCell id="EpILO0wRJ1sFS4nSIfSt-6" value="&lt;font style=&quot;font-size: 45px&quot; face=&quot;Times New Roman&quot;&gt;Contraseña&lt;/font&gt;" style="rounded=0;whiteSpace=wrap;html=1;fillColor=#FFE100;gradientColor=none;" vertex="1" parent="EpILO0wRJ1sFS4nSIfSt-1">
          <mxGeometry x="-500" y="470" width="380" height="65" as="geometry" />
        </mxCell>
        <mxCell id="EpILO0wRJ1sFS4nSIfSt-7" value="&lt;font face=&quot;Times New Roman&quot;&gt;&lt;font style=&quot;font-size: 45px&quot;&gt;Usuario&lt;/font&gt;&lt;font style=&quot;font-size: 30px&quot;&gt;&amp;nbsp;&lt;/font&gt;&lt;/font&gt;" style="rounded=0;whiteSpace=wrap;html=1;fillColor=#FFE100;gradientColor=none;fontSize=15;" vertex="1" parent="EpILO0wRJ1sFS4nSIfSt-1">
          <mxGeometry x="-490" y="320" width="380" height="70" as="geometry" />
        </mxCell>
        <mxCell id="EpILO0wRJ1sFS4nSIfSt-8" value="&lt;font style=&quot;font-size: 32px&quot;&gt;Logo&lt;/font&gt;" style="ellipse;whiteSpace=wrap;html=1;fillColor=#FFE100;gradientColor=none;fontSize=15;" vertex="1" parent="EpILO0wRJ1sFS4nSIfSt-1">
          <mxGeometry x="-500" y="130" width="360" height="110" as="geometry" />
        </mxCell>
      </root>
    </mxGraphModel>
  </diagram>
  <diagram id="1jelP1vHtvXtBEIN3mNQ" name="Page-11">
    <mxGraphModel dx="1575" dy="412" grid="1" gridSize="10" guides="1" tooltips="1" connect="1" arrows="1" fold="1" page="1" pageScale="1" pageWidth="827" pageHeight="1169" math="0" shadow="0">
      <root>
        <mxCell id="Y9TsYpHeIwscOiE1OCkc-0" />
        <mxCell id="Y9TsYpHeIwscOiE1OCkc-1" parent="Y9TsYpHeIwscOiE1OCkc-0" />
        <mxCell id="Y9TsYpHeIwscOiE1OCkc-2" value="" style="whiteSpace=wrap;html=1;aspect=fixed;" vertex="1" parent="Y9TsYpHeIwscOiE1OCkc-1">
          <mxGeometry x="-552.5" y="460" width="790" height="790" as="geometry" />
        </mxCell>
        <mxCell id="Y9TsYpHeIwscOiE1OCkc-3" value="" style="shape=offPageConnector;whiteSpace=wrap;html=1;fillColor=#FFE100;gradientColor=none;fontSize=31;" vertex="1" parent="Y9TsYpHeIwscOiE1OCkc-1">
          <mxGeometry x="-470" y="620" width="650" height="500" as="geometry" />
        </mxCell>
        <mxCell id="Y9TsYpHeIwscOiE1OCkc-4" value="" style="shape=loopLimit;whiteSpace=wrap;html=1;fillColor=#FFE100;gradientColor=none;fontSize=31;rotation=-180;" vertex="1" parent="Y9TsYpHeIwscOiE1OCkc-1">
          <mxGeometry x="-470" y="930" width="650" height="300" as="geometry" />
        </mxCell>
        <mxCell id="Y9TsYpHeIwscOiE1OCkc-5" value="" style="shape=document;whiteSpace=wrap;html=1;boundedLbl=1;rotation=-180;verticalAlign=middle;" vertex="1" parent="Y9TsYpHeIwscOiE1OCkc-1">
          <mxGeometry x="-485" y="460" width="665" height="160" as="geometry" />
        </mxCell>
        <mxCell id="Y9TsYpHeIwscOiE1OCkc-6" value="&lt;font style=&quot;font-size: 32px&quot;&gt;Logo&lt;/font&gt;" style="ellipse;whiteSpace=wrap;html=1;fillColor=#FFE100;gradientColor=none;fontSize=15;" vertex="1" parent="Y9TsYpHeIwscOiE1OCkc-1">
          <mxGeometry x="-332.5" y="500" width="350" height="110" as="geometry" />
        </mxCell>
        <mxCell id="Y9TsYpHeIwscOiE1OCkc-7" value="" style="rounded=1;whiteSpace=wrap;html=1;fillColor=#FFE100;gradientColor=none;fontSize=31;" vertex="1" parent="Y9TsYpHeIwscOiE1OCkc-1">
          <mxGeometry x="-390" y="860" width="440" height="80" as="geometry" />
        </mxCell>
        <mxCell id="Y9TsYpHeIwscOiE1OCkc-8" value="" style="rounded=1;whiteSpace=wrap;html=1;fillColor=#FFE100;gradientColor=none;fontSize=31;" vertex="1" parent="Y9TsYpHeIwscOiE1OCkc-1">
          <mxGeometry x="-390" y="700" width="440" height="80" as="geometry" />
        </mxCell>
        <mxCell id="Y9TsYpHeIwscOiE1OCkc-9" value="&lt;span style=&quot;font-family: &amp;#34;times new roman&amp;#34; ; font-size: 45px&quot;&gt;Inició de sesión&amp;nbsp;&lt;/span&gt;" style="rounded=1;whiteSpace=wrap;html=1;fillColor=#FFE100;gradientColor=none;fontSize=31;" vertex="1" parent="Y9TsYpHeIwscOiE1OCkc-1">
          <mxGeometry x="-390" y="1010" width="440" height="80" as="geometry" />
        </mxCell>
      </root>
    </mxGraphModel>
  </diagram>
  <diagram id="Q_uuuvUM8SrAZmJ32ywU" name="Page-12">
    <mxGraphModel dx="748" dy="412" grid="1" gridSize="10" guides="1" tooltips="1" connect="1" arrows="1" fold="1" page="1" pageScale="1" pageWidth="827" pageHeight="1169" math="0" shadow="0">
      <root>
        <mxCell id="TENw49gpfjS7iFxxKJLm-0" />
        <mxCell id="TENw49gpfjS7iFxxKJLm-1" parent="TENw49gpfjS7iFxxKJLm-0" />
      </root>
    </mxGraphModel>
  </diagram>
  <diagram id="CbYLhDgTeObxM0XE2itn" name="Page-13">
    <mxGraphModel dx="2323" dy="824" grid="1" gridSize="10" guides="1" tooltips="1" connect="1" arrows="1" fold="1" page="1" pageScale="1" pageWidth="827" pageHeight="1169" math="0" shadow="0">
      <root>
        <mxCell id="5HFCLcHnDKZrvp5b20fj-0" />
        <mxCell id="5HFCLcHnDKZrvp5b20fj-1" parent="5HFCLcHnDKZrvp5b20fj-0" />
        <mxCell id="5HFCLcHnDKZrvp5b20fj-2" value="" style="whiteSpace=wrap;html=1;aspect=fixed;" vertex="1" parent="5HFCLcHnDKZrvp5b20fj-1">
          <mxGeometry x="-500" y="340" width="790" height="790" as="geometry" />
        </mxCell>
        <mxCell id="5HFCLcHnDKZrvp5b20fj-3" value="&lt;font style=&quot;font-size: 32px&quot;&gt;Logo&lt;/font&gt;" style="ellipse;whiteSpace=wrap;html=1;fontSize=15;" vertex="1" parent="5HFCLcHnDKZrvp5b20fj-1">
          <mxGeometry x="-360" y="480" width="560" height="150" as="geometry" />
        </mxCell>
        <mxCell id="5HFCLcHnDKZrvp5b20fj-4" value="&lt;span style=&quot;color: rgba(0 , 0 , 0 , 0) ; font-family: monospace ; font-size: 0px&quot;&gt;%3CmxGraphModel%3E%3Croot%3E%3CmxCell%20id%3D%220%22%2F%3E%3CmxCell%20id%3D%221%22%20parent%3D%220%22%2F%3E%3CmxCell%20id%3D%222%22%20value%3D%22%26lt%3Bfont%20style%3D%26quot%3Bfont-size%3A%2045px%26quot%3B%20face%3D%26quot%3BTimes%20New%20Roman%26quot%3B%26gt%3BContrase%C3%B1a%26lt%3B%2Ffont%26gt%3B%22%20style%3D%22rounded%3D0%3BwhiteSpace%3Dwrap%3Bhtml%3D1%3BfillColor%3D%23FFE100%3BgradientColor%3Dnone%3B%22%20vertex%3D%221%22%20parent%3D%221%22%3E%3CmxGeometry%20x%3D%22-420%22%20y%3D%22680%22%20width%3D%22460%22%20height%3D%22100%22%20as%3D%22geometry%22%2F%3E%3C%2FmxCell%3E%3CmxCell%20id%3D%223%22%20value%3D%22%26lt%3Bfont%20face%3D%26quot%3BTimes%20New%20Roman%26quot%3B%26gt%3B%26lt%3Bfont%20style%3D%26quot%3Bfont-size%3A%2045px%26quot%3B%26gt%3BUsuario%26lt%3B%2Ffont%26gt%3B%26lt%3Bfont%20style%3D%26quot%3Bfont-size%3A%2030px%26quot%3B%26gt%3B%26amp%3Bnbsp%3B%26lt%3B%2Ffont%26gt%3B%26lt%3B%2Ffont%26gt%3B%22%20style%3D%22rounded%3D0%3BwhiteSpace%3Dwrap%3Bhtml%3D1%3BfillColor%3D%23FFE100%3BgradientColor%3Dnone%3BfontSize%3D15%3B%22%20vertex%3D%221%22%20parent%3D%221%22%3E%3CmxGeometry%20x%3D%22-410%22%20y%3D%22500%22%20width%3D%22460%22%20height%3D%22100%22%20as%3D%22geometry%22%2F%3E%3C%2FmxCell%3E%3C%2Froot%3E%3C%2FmxGraphModel%3E&lt;/span&gt;&lt;span style=&quot;color: rgba(0 , 0 , 0 , 0) ; font-family: monospace ; font-size: 0px&quot;&gt;%3CmxGraphModel%3E%3Croot%3E%3CmxCell%20id%3D%220%22%2F%3E%3CmxCell%20id%3D%221%22%20parent%3D%220%22%2F%3E%3CmxCell%20id%3D%222%22%20value%3D%22%26lt%3Bfont%20style%3D%26quot%3Bfont-size%3A%2045px%26quot%3B%20face%3D%26quot%3BTimes%20New%20Roman%26quot%3B%26gt%3BContrase%C3%B1a%26lt%3B%2Ffont%26gt%3B%22%20style%3D%22rounded%3D0%3BwhiteSpace%3Dwrap%3Bhtml%3D1%3BfillColor%3D%23FFE100%3BgradientColor%3Dnone%3B%22%20vertex%3D%221%22%20parent%3D%221%22%3E%3CmxGeometry%20x%3D%22-420%22%20y%3D%22680%22%20width%3D%22460%22%20height%3D%22100%22%20as%3D%22geometry%22%2F%3E%3C%2FmxCell%3E%3CmxCell%20id%3D%223%22%20value%3D%22%26lt%3Bfont%20face%3D%26quot%3BTimes%20New%20Roman%26quot%3B%26gt%3B%26lt%3Bfont%20style%3D%26quot%3Bfont-size%3A%2045px%26quot%3B%26gt%3BUsuario%26lt%3B%2Ffont%26gt%3B%26lt%3Bfont%20style%3D%26quot%3Bfont-size%3A%2030px%26quot%3B%26gt%3B%26amp%3Bnbsp%3B%26lt%3B%2Ffont%26gt%3B%26lt%3B%2Ffont%26gt%3B%22%20style%3D%22rounded%3D0%3BwhiteSpace%3Dwrap%3Bhtml%3D1%3BfillColor%3D%23FFE100%3BgradientColor%3Dnone%3BfontSize%3D15%3B%22%20vertex%3D%221%22%20parent%3D%221%22%3E%3CmxGeometry%20x%3D%22-410%22%20y%3D%22500%22%20width%3D%22460%22%20height%3D%22100%22%20as%3D%22geometry%22%2F%3E%3C%2FmxCell%3E%3C%2Froot%3E%3C%2FmxGraphModel%3E&lt;/span&gt;&lt;span style=&quot;color: rgba(0 , 0 , 0 , 0) ; font-family: monospace ; font-size: 0px&quot;&gt;%3CmxGraphModel%3E%3Croot%3E%3CmxCell%20id%3D%220%22%2F%3E%3CmxCell%20id%3D%221%22%20parent%3D%220%22%2F%3E%3CmxCell%20id%3D%222%22%20value%3D%22%26lt%3Bfont%20style%3D%26quot%3Bfont-size%3A%2045px%26quot%3B%20face%3D%26quot%3BTimes%20New%20Roman%26quot%3B%26gt%3BContrase%C3%B1a%26lt%3B%2Ffont%26gt%3B%22%20style%3D%22rounded%3D0%3BwhiteSpace%3Dwrap%3Bhtml%3D1%3BfillColor%3D%23FFE100%3BgradientColor%3Dnone%3B%22%20vertex%3D%221%22%20parent%3D%221%22%3E%3CmxGeometry%20x%3D%22-420%22%20y%3D%22680%22%20width%3D%22460%22%20height%3D%22100%22%20as%3D%22geometry%22%2F%3E%3C%2FmxCell%3E%3CmxCell%20id%3D%223%22%20value%3D%22%26lt%3Bfont%20face%3D%26quot%3BTimes%20New%20Roman%26quot%3B%26gt%3B%26lt%3Bfont%20style%3D%26quot%3Bfont-size%3A%2045px%26quot%3B%26gt%3BUsuario%26lt%3B%2Ffont%26gt%3B%26lt%3Bfont%20style%3D%26quot%3Bfont-size%3A%2030px%26quot%3B%26gt%3B%26amp%3Bnbsp%3B%26lt%3B%2Ffont%26gt%3B%26lt%3B%2Ffont%26gt%3B%22%20style%3D%22rounded%3D0%3BwhiteSpace%3Dwrap%3Bhtml%3D1%3BfillColor%3D%23FFE100%3BgradientColor%3Dnone%3BfontSize%3D15%3B%22%20vertex%3D%221%22%20parent%3D%221%22%3E%3CmxGeometry%20x%3D%22-410%22%20y%3D%22500%22%20width%3D%22460%22%20height%3D%22100%22%20as%3D%22geometry%22%2F%3E%3C%2FmxCell%3E%3C%2Froot%3E%3C%2FmxGraphModel%3E&lt;/span&gt;&lt;span style=&quot;color: rgba(0 , 0 , 0 , 0) ; font-family: monospace ; font-size: 0px&quot;&gt;%3CmxGraphModel%3E%3Croot%3E%3CmxCell%20id%3D%220%22%2F%3E%3CmxCell%20id%3D%221%22%20parent%3D%220%22%2F%3E%3CmxCell%20id%3D%222%22%20value%3D%22%26lt%3Bfont%20style%3D%26quot%3Bfont-size%3A%2045px%26quot%3B%20face%3D%26quot%3BTimes%20New%20Roman%26quot%3B%26gt%3BContrase%C3%B1a%26lt%3B%2Ffont%26gt%3B%22%20style%3D%22rounded%3D0%3BwhiteSpace%3Dwrap%3Bhtml%3D1%3BfillColor%3D%23FFE100%3BgradientColor%3Dnone%3B%22%20vertex%3D%221%22%20parent%3D%221%22%3E%3CmxGeometry%20x%3D%22-420%22%20y%3D%22680%22%20width%3D%22460%22%20height%3D%22100%22%20as%3D%22geometry%22%2F%3E%3C%2FmxCell%3E%3CmxCell%20id%3D%223%22%20value%3D%22%26lt%3Bfont%20face%3D%26quot%3BTimes%20New%20Roman%26quot%3B%26gt%3B%26lt%3Bfont%20style%3D%26quot%3Bfont-size%3A%2045px%26quot%3B%26gt%3BUsuario%26lt%3B%2Ffont%26gt%3B%26lt%3Bfont%20style%3D%26quot%3Bfont-size%3A%2030px%26quot%3B%26gt%3B%26amp%3Bnbsp%3B%26lt%3B%2Ffont%26gt%3B%26lt%3B%2Ffont%26gt%3B%22%20style%3D%22rounded%3D0%3BwhiteSpace%3Dwrap%3Bhtml%3D1%3BfillColor%3D%23FFE100%3BgradientColor%3Dnone%3BfontSize%3D15%3B%22%20vertex%3D%221%22%20parent%3D%221%22%3E%3CmxGeometry%20x%3D%22-410%22%20y%3D%22500%22%20width%3D%22460%22%20height%3D%22100%22%20as%3D%22geometry%22%2F%3E%3C%2FmxCell%3E%3C%2Froot%3E%3C%2FmxGraphModel%3E&lt;/span&gt;&lt;span style=&quot;color: rgba(0 , 0 , 0 , 0) ; font-family: monospace ; font-size: 0px&quot;&gt;%3CmxGraphModel%3E%3Croot%3E%3CmxCell%20id%3D%220%22%2F%3E%3CmxCell%20id%3D%221%22%20parent%3D%220%22%2F%3E%3CmxCell%20id%3D%222%22%20value%3D%22%26lt%3Bfont%20style%3D%26quot%3Bfont-size%3A%2045px%26quot%3B%20face%3D%26quot%3BTimes%20New%20Roman%26quot%3B%26gt%3BContrase%C3%B1a%26lt%3B%2Ffont%26gt%3B%22%20style%3D%22rounded%3D0%3BwhiteSpace%3Dwrap%3Bhtml%3D1%3BfillColor%3D%23FFE100%3BgradientColor%3Dnone%3B%22%20vertex%3D%221%22%20parent%3D%221%22%3E%3CmxGeometry%20x%3D%22-420%22%20y%3D%22680%22%20width%3D%22460%22%20height%3D%22100%22%20as%3D%22geometry%22%2F%3E%3C%2FmxCell%3E%3CmxCell%20id%3D%223%22%20value%3D%22%26lt%3Bfont%20face%3D%26quot%3BTimes%20New%20Roman%26quot%3B%26gt%3B%26lt%3Bfont%20style%3D%26quot%3Bfont-size%3A%2045px%26quot%3B%26gt%3BUsuario%26lt%3B%2Ffont%26gt%3B%26lt%3Bfont%20style%3D%26quot%3Bfont-size%3A%2030px%26quot%3B%26gt%3B%26amp%3Bnbsp%3B%26lt%3B%2Ffont%26gt%3B%26lt%3B%2Ffont%26gt%3B%22%20style%3D%22rounded%3D0%3BwhiteSpace%3Dwrap%3Bhtml%3D1%3BfillColor%3D%23FFE100%3BgradientColor%3Dnone%3BfontSize%3D15%3B%22%20vertex%3D%221%22%20parent%3D%221%22%3E%3CmxGeometry%20x%3D%22-410%22%20y%3D%22500%22%20width%3D%22460%22%20height%3D%22100%22%20as%3D%22geometry%22%2F%3E%3C%2FmxCell%3E%3C%2Froot%3E%3C%2FmxGraphModel%3E&lt;/span&gt;" style="whiteSpace=wrap;html=1;aspect=fixed;fontSize=31;" vertex="1" parent="5HFCLcHnDKZrvp5b20fj-1">
          <mxGeometry x="-290" y="680" width="445" height="445" as="geometry" />
        </mxCell>
        <mxCell id="5HFCLcHnDKZrvp5b20fj-5" value="&lt;font style=&quot;font-size: 45px&quot; face=&quot;Times New Roman&quot;&gt;Contraseña&lt;/font&gt;" style="rounded=0;whiteSpace=wrap;html=1;" vertex="1" parent="5HFCLcHnDKZrvp5b20fj-1">
          <mxGeometry x="-254.37" y="840" width="388.75" height="80" as="geometry" />
        </mxCell>
        <mxCell id="5HFCLcHnDKZrvp5b20fj-6" value="&lt;font face=&quot;Times New Roman&quot;&gt;&lt;font style=&quot;font-size: 45px&quot;&gt;Usuario&lt;/font&gt;&lt;font style=&quot;font-size: 30px&quot;&gt;&amp;nbsp;&lt;/font&gt;&lt;/font&gt;" style="rounded=0;whiteSpace=wrap;html=1;fontSize=15;" vertex="1" parent="5HFCLcHnDKZrvp5b20fj-1">
          <mxGeometry x="-250" y="720" width="390" height="70" as="geometry" />
        </mxCell>
        <mxCell id="5HFCLcHnDKZrvp5b20fj-7" value="Inició de sesión" style="labelPosition=center;verticalLabelPosition=middle;align=center;html=1;shape=mxgraph.basic.button;dx=10;fillColor=#FFE100;gradientColor=none;fontSize=31;" vertex="1" parent="5HFCLcHnDKZrvp5b20fj-1">
          <mxGeometry x="-260" y="980" width="400" height="121" as="geometry" />
        </mxCell>
        <mxCell id="5HFCLcHnDKZrvp5b20fj-8" value="" style="verticalLabelPosition=bottom;verticalAlign=top;html=1;shape=mxgraph.basic.half_circle;fontSize=31;rotation=-165;" vertex="1" parent="5HFCLcHnDKZrvp5b20fj-1">
          <mxGeometry x="-370" y="400" width="170" height="90" as="geometry" />
        </mxCell>
        <mxCell id="5HFCLcHnDKZrvp5b20fj-9" value="" style="shape=loopLimit;whiteSpace=wrap;html=1;fontSize=31;rotation=-120;strokeColor=#d6b656;fillColor=#FFE100;" vertex="1" parent="5HFCLcHnDKZrvp5b20fj-1">
          <mxGeometry x="-450" y="375" width="170" height="210" as="geometry" />
        </mxCell>
      </root>
    </mxGraphModel>
  </diagram>
</mxfile>
